<?xml version="1.0" standalone="yes"?>
<svg version="1.1" xmlns="http://www.w3.org/2000/svg" xmlns:xlink="http://www.w3.org/1999/xlink"
	xmlns:ev="http://www.w3.org/2001/xml-events" width="333" height="333" shape-rendering="crispEdges">
	<rect width="333" height="333" x="0" y="0" style="fill:#fff" />
	<rect width="11" height="11" x="7" y="7" style="fill:#ee5253" />
	<rect width="11" height="11" x="18" y="7" style="fill:#ee5253" />
	<rect width="11" height="11" x="29" y="7" style="fill:#ee5253" />
	<rect width="11" height="11" x="40" y="7" style="fill:#ee5253" />
	<rect width="11" height="11" x="51" y="7" style="fill:#ee5253" />
	<rect width="11" height="11" x="62" y="7" style="fill:#ee5253" />
	<rect width="11" height="11" x="73" y="7" style="fill:#ee5253" />
	<rect width="11" height="11" x="117" y="7" style="fill:#ee5253" />
	<rect width="11" height="11" x="139" y="7" style="fill:#ee5253" />
	<rect width="11" height="11" x="150" y="7" style="fill:#ee5253" />
	<rect width="11" height="11" x="172" y="7" style="fill:#ee5253" />
	<rect width="11" height="11" x="183" y="7" style="fill:#ee5253" />
	<rect width="11" height="11" x="194" y="7" style="fill:#ee5253" />
	<rect width="11" height="11" x="205" y="7" style="fill:#ee5253" />
	<rect width="11" height="11" x="216" y="7" style="fill:#ee5253" />
	<rect width="11" height="11" x="249" y="7" style="fill:#ee5253" />
	<rect width="11" height="11" x="260" y="7" style="fill:#ee5253" />
	<rect width="11" height="11" x="271" y="7" style="fill:#ee5253" />
	<rect width="11" height="11" x="282" y="7" style="fill:#ee5253" />
	<rect width="11" height="11" x="293" y="7" style="fill:#ee5253" />
	<rect width="11" height="11" x="304" y="7" style="fill:#ee5253" />
	<rect width="11" height="11" x="315" y="7" style="fill:#ee5253" />
	<rect width="11" height="11" x="7" y="18" style="fill:#ee5253" />
	<rect width="11" height="11" x="73" y="18" style="fill:#ee5253" />
	<rect width="11" height="11" x="95" y="18" style="fill:#ee5253" />
	<rect width="11" height="11" x="117" y="18" style="fill:#ee5253" />
	<rect width="11" height="11" x="128" y="18" style="fill:#ee5253" />
	<rect width="11" height="11" x="194" y="18" style="fill:#ee5253" />
	<rect width="11" height="11" x="227" y="18" style="fill:#ee5253" />
	<rect width="11" height="11" x="249" y="18" style="fill:#ee5253" />
	<rect width="11" height="11" x="315" y="18" style="fill:#ee5253" />
	<rect width="11" height="11" x="7" y="29" style="fill:#ee5253" />
	<rect width="11" height="11" x="29" y="29" style="fill:#ee5253" />
	<rect width="11" height="11" x="40" y="29" style="fill:#ee5253" />
	<rect width="11" height="11" x="51" y="29" style="fill:#ee5253" />
	<rect width="11" height="11" x="73" y="29" style="fill:#ee5253" />
	<rect width="11" height="11" x="106" y="29" style="fill:#ee5253" />
	<rect width="11" height="11" x="117" y="29" style="fill:#ee5253" />
	<rect width="11" height="11" x="150" y="29" style="fill:#ee5253" />
	<rect width="11" height="11" x="172" y="29" style="fill:#ee5253" />
	<rect width="11" height="11" x="194" y="29" style="fill:#ee5253" />
	<rect width="11" height="11" x="216" y="29" style="fill:#ee5253" />
	<rect width="11" height="11" x="227" y="29" style="fill:#ee5253" />
	<rect width="11" height="11" x="249" y="29" style="fill:#ee5253" />
	<rect width="11" height="11" x="271" y="29" style="fill:#ee5253" />
	<rect width="11" height="11" x="282" y="29" style="fill:#ee5253" />
	<rect width="11" height="11" x="293" y="29" style="fill:#ee5253" />
	<rect width="11" height="11" x="315" y="29" style="fill:#ee5253" />
	<rect width="11" height="11" x="7" y="40" style="fill:#ee5253" />
	<rect width="11" height="11" x="29" y="40" style="fill:#ee5253" />
	<rect width="11" height="11" x="40" y="40" style="fill:#ee5253" />
	<rect width="11" height="11" x="51" y="40" style="fill:#ee5253" />
	<rect width="11" height="11" x="73" y="40" style="fill:#ee5253" />
	<rect width="11" height="11" x="117" y="40" style="fill:#ee5253" />
	<rect width="11" height="11" x="205" y="40" style="fill:#ee5253" />
	<rect width="11" height="11" x="216" y="40" style="fill:#ee5253" />
	<rect width="11" height="11" x="249" y="40" style="fill:#ee5253" />
	<rect width="11" height="11" x="271" y="40" style="fill:#ee5253" />
	<rect width="11" height="11" x="282" y="40" style="fill:#ee5253" />
	<rect width="11" height="11" x="293" y="40" style="fill:#ee5253" />
	<rect width="11" height="11" x="315" y="40" style="fill:#ee5253" />
	<rect width="11" height="11" x="7" y="51" style="fill:#ee5253" />
	<rect width="11" height="11" x="29" y="51" style="fill:#ee5253" />
	<rect width="11" height="11" x="40" y="51" style="fill:#ee5253" />
	<rect width="11" height="11" x="51" y="51" style="fill:#ee5253" />
	<rect width="11" height="11" x="73" y="51" style="fill:#ee5253" />
	<rect width="11" height="11" x="139" y="51" style="fill:#ee5253" />
	<rect width="11" height="11" x="150" y="51" style="fill:#ee5253" />
	<rect width="11" height="11" x="205" y="51" style="fill:#ee5253" />
	<rect width="11" height="11" x="249" y="51" style="fill:#ee5253" />
	<rect width="11" height="11" x="271" y="51" style="fill:#ee5253" />
	<rect width="11" height="11" x="282" y="51" style="fill:#ee5253" />
	<rect width="11" height="11" x="293" y="51" style="fill:#ee5253" />
	<rect width="11" height="11" x="315" y="51" style="fill:#ee5253" />
	<rect width="11" height="11" x="7" y="62" style="fill:#ee5253" />
	<rect width="11" height="11" x="73" y="62" style="fill:#ee5253" />
	<rect width="11" height="11" x="95" y="62" style="fill:#ee5253" />
	<rect width="11" height="11" x="128" y="62" style="fill:#ee5253" />
	<rect width="11" height="11" x="150" y="62" style="fill:#ee5253" />
	<rect width="11" height="11" x="183" y="62" style="fill:#ee5253" />
	<rect width="11" height="11" x="205" y="62" style="fill:#ee5253" />
	<rect width="11" height="11" x="216" y="62" style="fill:#ee5253" />
	<rect width="11" height="11" x="249" y="62" style="fill:#ee5253" />
	<rect width="11" height="11" x="315" y="62" style="fill:#ee5253" />
	<rect width="11" height="11" x="7" y="73" style="fill:#ee5253" />
	<rect width="11" height="11" x="18" y="73" style="fill:#ee5253" />
	<rect width="11" height="11" x="29" y="73" style="fill:#ee5253" />
	<rect width="11" height="11" x="40" y="73" style="fill:#ee5253" />
	<rect width="11" height="11" x="51" y="73" style="fill:#ee5253" />
	<rect width="11" height="11" x="62" y="73" style="fill:#ee5253" />
	<rect width="11" height="11" x="73" y="73" style="fill:#ee5253" />
	<rect width="11" height="11" x="95" y="73" style="fill:#ee5253" />
	<rect width="11" height="11" x="117" y="73" style="fill:#ee5253" />
	<rect width="11" height="11" x="139" y="73" style="fill:#ee5253" />
	<rect width="11" height="11" x="161" y="73" style="fill:#ee5253" />
	<rect width="11" height="11" x="183" y="73" style="fill:#ee5253" />
	<rect width="11" height="11" x="205" y="73" style="fill:#ee5253" />
	<rect width="11" height="11" x="227" y="73" style="fill:#ee5253" />
	<rect width="11" height="11" x="249" y="73" style="fill:#ee5253" />
	<rect width="11" height="11" x="260" y="73" style="fill:#ee5253" />
	<rect width="11" height="11" x="271" y="73" style="fill:#ee5253" />
	<rect width="11" height="11" x="282" y="73" style="fill:#ee5253" />
	<rect width="11" height="11" x="293" y="73" style="fill:#ee5253" />
	<rect width="11" height="11" x="304" y="73" style="fill:#ee5253" />
	<rect width="11" height="11" x="315" y="73" style="fill:#ee5253" />
	<rect width="11" height="11" x="95" y="84" style="fill:#ee5253" />
	<rect width="11" height="11" x="106" y="84" style="fill:#ee5253" />
	<rect width="11" height="11" x="117" y="84" style="fill:#ee5253" />
	<rect width="11" height="11" x="128" y="84" style="fill:#ee5253" />
	<rect width="11" height="11" x="139" y="84" style="fill:#ee5253" />
	<rect width="11" height="11" x="172" y="84" style="fill:#ee5253" />
	<rect width="11" height="11" x="183" y="84" style="fill:#ee5253" />
	<rect width="11" height="11" x="194" y="84" style="fill:#ee5253" />
	<rect width="11" height="11" x="205" y="84" style="fill:#ee5253" />
	<rect width="11" height="11" x="51" y="95" style="fill:#ee5253" />
	<rect width="11" height="11" x="62" y="95" style="fill:#ee5253" />
	<rect width="11" height="11" x="73" y="95" style="fill:#ee5253" />
	<rect width="11" height="11" x="84" y="95" style="fill:#ee5253" />
	<rect width="11" height="11" x="117" y="95" style="fill:#ee5253" />
	<rect width="11" height="11" x="161" y="95" style="fill:#ee5253" />
	<rect width="11" height="11" x="172" y="95" style="fill:#ee5253" />
	<rect width="11" height="11" x="205" y="95" style="fill:#ee5253" />
	<rect width="11" height="11" x="216" y="95" style="fill:#ee5253" />
	<rect width="11" height="11" x="249" y="95" style="fill:#ee5253" />
	<rect width="11" height="11" x="260" y="95" style="fill:#ee5253" />
	<rect width="11" height="11" x="304" y="95" style="fill:#ee5253" />
	<rect width="11" height="11" x="7" y="106" style="fill:#ee5253" />
	<rect width="11" height="11" x="18" y="106" style="fill:#ee5253" />
	<rect width="11" height="11" x="29" y="106" style="fill:#ee5253" />
	<rect width="11" height="11" x="40" y="106" style="fill:#ee5253" />
	<rect width="11" height="11" x="51" y="106" style="fill:#ee5253" />
	<rect width="11" height="11" x="62" y="106" style="fill:#ee5253" />
	<rect width="11" height="11" x="95" y="106" style="fill:#ee5253" />
	<rect width="11" height="11" x="128" y="106" style="fill:#ee5253" />
	<rect width="11" height="11" x="216" y="106" style="fill:#ee5253" />
	<rect width="11" height="11" x="227" y="106" style="fill:#ee5253" />
	<rect width="11" height="11" x="271" y="106" style="fill:#ee5253" />
	<rect width="11" height="11" x="304" y="106" style="fill:#ee5253" />
	<rect width="11" height="11" x="315" y="106" style="fill:#ee5253" />
	<rect width="11" height="11" x="7" y="117" style="fill:#ee5253" />
	<rect width="11" height="11" x="29" y="117" style="fill:#ee5253" />
	<rect width="11" height="11" x="40" y="117" style="fill:#ee5253" />
	<rect width="11" height="11" x="62" y="117" style="fill:#ee5253" />
	<rect width="11" height="11" x="73" y="117" style="fill:#ee5253" />
	<rect width="11" height="11" x="106" y="117" style="fill:#ee5253" />
	<rect width="11" height="11" x="117" y="117" style="fill:#ee5253" />
	<rect width="11" height="11" x="128" y="117" style="fill:#ee5253" />
	<rect width="11" height="11" x="139" y="117" style="fill:#ee5253" />
	<rect width="11" height="11" x="150" y="117" style="fill:#ee5253" />
	<rect width="11" height="11" x="161" y="117" style="fill:#ee5253" />
	<rect width="11" height="11" x="172" y="117" style="fill:#ee5253" />
	<rect width="11" height="11" x="183" y="117" style="fill:#ee5253" />
	<rect width="11" height="11" x="205" y="117" style="fill:#ee5253" />
	<rect width="11" height="11" x="227" y="117" style="fill:#ee5253" />
	<rect width="11" height="11" x="238" y="117" style="fill:#ee5253" />
	<rect width="11" height="11" x="315" y="117" style="fill:#ee5253" />
	<rect width="11" height="11" x="40" y="128" style="fill:#ee5253" />
	<rect width="11" height="11" x="62" y="128" style="fill:#ee5253" />
	<rect width="11" height="11" x="95" y="128" style="fill:#ee5253" />
	<rect width="11" height="11" x="106" y="128" style="fill:#ee5253" />
	<rect width="11" height="11" x="117" y="128" style="fill:#ee5253" />
	<rect width="11" height="11" x="150" y="128" style="fill:#ee5253" />
	<rect width="11" height="11" x="161" y="128" style="fill:#ee5253" />
	<rect width="11" height="11" x="194" y="128" style="fill:#ee5253" />
	<rect width="11" height="11" x="205" y="128" style="fill:#ee5253" />
	<rect width="11" height="11" x="238" y="128" style="fill:#ee5253" />
	<rect width="11" height="11" x="282" y="128" style="fill:#ee5253" />
	<rect width="11" height="11" x="304" y="128" style="fill:#ee5253" />
	<rect width="11" height="11" x="315" y="128" style="fill:#ee5253" />
	<rect width="11" height="11" x="29" y="139" style="fill:#ee5253" />
	<rect width="11" height="11" x="51" y="139" style="fill:#ee5253" />
	<rect width="11" height="11" x="62" y="139" style="fill:#ee5253" />
	<rect width="11" height="11" x="73" y="139" style="fill:#ee5253" />
	<rect width="11" height="11" x="84" y="139" style="fill:#ee5253" />
	<rect width="11" height="11" x="106" y="139" style="fill:#ee5253" />
	<rect width="11" height="11" x="117" y="139" style="fill:#ee5253" />
	<rect width="11" height="11" x="128" y="139" style="fill:#ee5253" />
	<rect width="11" height="11" x="139" y="139" style="fill:#ee5253" />
	<rect width="11" height="11" x="150" y="139" style="fill:#ee5253" />
	<rect width="11" height="11" x="161" y="139" style="fill:#ee5253" />
	<rect width="11" height="11" x="183" y="139" style="fill:#ee5253" />
	<rect width="11" height="11" x="205" y="139" style="fill:#ee5253" />
	<rect width="11" height="11" x="216" y="139" style="fill:#ee5253" />
	<rect width="11" height="11" x="227" y="139" style="fill:#ee5253" />
	<rect width="11" height="11" x="260" y="139" style="fill:#ee5253" />
	<rect width="11" height="11" x="282" y="139" style="fill:#ee5253" />
	<rect width="11" height="11" x="315" y="139" style="fill:#ee5253" />
	<rect width="11" height="11" x="7" y="150" style="fill:#ee5253" />
	<rect width="11" height="11" x="18" y="150" style="fill:#ee5253" />
	<rect width="11" height="11" x="51" y="150" style="fill:#ee5253" />
	<rect width="11" height="11" x="84" y="150" style="fill:#ee5253" />
	<rect width="11" height="11" x="95" y="150" style="fill:#ee5253" />
	<rect width="11" height="11" x="117" y="150" style="fill:#ee5253" />
	<rect width="11" height="11" x="128" y="150" style="fill:#ee5253" />
	<rect width="11" height="11" x="139" y="150" style="fill:#ee5253" />
	<rect width="11" height="11" x="172" y="150" style="fill:#ee5253" />
	<rect width="11" height="11" x="249" y="150" style="fill:#ee5253" />
	<rect width="11" height="11" x="271" y="150" style="fill:#ee5253" />
	<rect width="11" height="11" x="293" y="150" style="fill:#ee5253" />
	<rect width="11" height="11" x="315" y="150" style="fill:#ee5253" />
	<rect width="11" height="11" x="18" y="161" style="fill:#ee5253" />
	<rect width="11" height="11" x="62" y="161" style="fill:#ee5253" />
	<rect width="11" height="11" x="73" y="161" style="fill:#ee5253" />
	<rect width="11" height="11" x="95" y="161" style="fill:#ee5253" />
	<rect width="11" height="11" x="183" y="161" style="fill:#ee5253" />
	<rect width="11" height="11" x="194" y="161" style="fill:#ee5253" />
	<rect width="11" height="11" x="227" y="161" style="fill:#ee5253" />
	<rect width="11" height="11" x="271" y="161" style="fill:#ee5253" />
	<rect width="11" height="11" x="315" y="161" style="fill:#ee5253" />
	<rect width="11" height="11" x="7" y="172" style="fill:#ee5253" />
	<rect width="11" height="11" x="18" y="172" style="fill:#ee5253" />
	<rect width="11" height="11" x="29" y="172" style="fill:#ee5253" />
	<rect width="11" height="11" x="51" y="172" style="fill:#ee5253" />
	<rect width="11" height="11" x="106" y="172" style="fill:#ee5253" />
	<rect width="11" height="11" x="117" y="172" style="fill:#ee5253" />
	<rect width="11" height="11" x="128" y="172" style="fill:#ee5253" />
	<rect width="11" height="11" x="139" y="172" style="fill:#ee5253" />
	<rect width="11" height="11" x="150" y="172" style="fill:#ee5253" />
	<rect width="11" height="11" x="183" y="172" style="fill:#ee5253" />
	<rect width="11" height="11" x="205" y="172" style="fill:#ee5253" />
	<rect width="11" height="11" x="227" y="172" style="fill:#ee5253" />
	<rect width="11" height="11" x="238" y="172" style="fill:#ee5253" />
	<rect width="11" height="11" x="260" y="172" style="fill:#ee5253" />
	<rect width="11" height="11" x="282" y="172" style="fill:#ee5253" />
	<rect width="11" height="11" x="315" y="172" style="fill:#ee5253" />
	<rect width="11" height="11" x="7" y="183" style="fill:#ee5253" />
	<rect width="11" height="11" x="18" y="183" style="fill:#ee5253" />
	<rect width="11" height="11" x="29" y="183" style="fill:#ee5253" />
	<rect width="11" height="11" x="40" y="183" style="fill:#ee5253" />
	<rect width="11" height="11" x="51" y="183" style="fill:#ee5253" />
	<rect width="11" height="11" x="62" y="183" style="fill:#ee5253" />
	<rect width="11" height="11" x="73" y="183" style="fill:#ee5253" />
	<rect width="11" height="11" x="106" y="183" style="fill:#ee5253" />
	<rect width="11" height="11" x="150" y="183" style="fill:#ee5253" />
	<rect width="11" height="11" x="172" y="183" style="fill:#ee5253" />
	<rect width="11" height="11" x="194" y="183" style="fill:#ee5253" />
	<rect width="11" height="11" x="205" y="183" style="fill:#ee5253" />
	<rect width="11" height="11" x="227" y="183" style="fill:#ee5253" />
	<rect width="11" height="11" x="238" y="183" style="fill:#ee5253" />
	<rect width="11" height="11" x="249" y="183" style="fill:#ee5253" />
	<rect width="11" height="11" x="315" y="183" style="fill:#ee5253" />
	<rect width="11" height="11" x="7" y="194" style="fill:#ee5253" />
	<rect width="11" height="11" x="40" y="194" style="fill:#ee5253" />
	<rect width="11" height="11" x="51" y="194" style="fill:#ee5253" />
	<rect width="11" height="11" x="62" y="194" style="fill:#ee5253" />
	<rect width="11" height="11" x="84" y="194" style="fill:#ee5253" />
	<rect width="11" height="11" x="106" y="194" style="fill:#ee5253" />
	<rect width="11" height="11" x="117" y="194" style="fill:#ee5253" />
	<rect width="11" height="11" x="128" y="194" style="fill:#ee5253" />
	<rect width="11" height="11" x="150" y="194" style="fill:#ee5253" />
	<rect width="11" height="11" x="161" y="194" style="fill:#ee5253" />
	<rect width="11" height="11" x="183" y="194" style="fill:#ee5253" />
	<rect width="11" height="11" x="216" y="194" style="fill:#ee5253" />
	<rect width="11" height="11" x="260" y="194" style="fill:#ee5253" />
	<rect width="11" height="11" x="271" y="194" style="fill:#ee5253" />
	<rect width="11" height="11" x="315" y="194" style="fill:#ee5253" />
	<rect width="11" height="11" x="40" y="205" style="fill:#ee5253" />
	<rect width="11" height="11" x="73" y="205" style="fill:#ee5253" />
	<rect width="11" height="11" x="84" y="205" style="fill:#ee5253" />
	<rect width="11" height="11" x="117" y="205" style="fill:#ee5253" />
	<rect width="11" height="11" x="150" y="205" style="fill:#ee5253" />
	<rect width="11" height="11" x="161" y="205" style="fill:#ee5253" />
	<rect width="11" height="11" x="183" y="205" style="fill:#ee5253" />
	<rect width="11" height="11" x="205" y="205" style="fill:#ee5253" />
	<rect width="11" height="11" x="216" y="205" style="fill:#ee5253" />
	<rect width="11" height="11" x="282" y="205" style="fill:#ee5253" />
	<rect width="11" height="11" x="293" y="205" style="fill:#ee5253" />
	<rect width="11" height="11" x="315" y="205" style="fill:#ee5253" />
	<rect width="11" height="11" x="51" y="216" style="fill:#ee5253" />
	<rect width="11" height="11" x="62" y="216" style="fill:#ee5253" />
	<rect width="11" height="11" x="95" y="216" style="fill:#ee5253" />
	<rect width="11" height="11" x="117" y="216" style="fill:#ee5253" />
	<rect width="11" height="11" x="150" y="216" style="fill:#ee5253" />
	<rect width="11" height="11" x="161" y="216" style="fill:#ee5253" />
	<rect width="11" height="11" x="172" y="216" style="fill:#ee5253" />
	<rect width="11" height="11" x="183" y="216" style="fill:#ee5253" />
	<rect width="11" height="11" x="194" y="216" style="fill:#ee5253" />
	<rect width="11" height="11" x="216" y="216" style="fill:#ee5253" />
	<rect width="11" height="11" x="227" y="216" style="fill:#ee5253" />
	<rect width="11" height="11" x="271" y="216" style="fill:#ee5253" />
	<rect width="11" height="11" x="304" y="216" style="fill:#ee5253" />
	<rect width="11" height="11" x="7" y="227" style="fill:#ee5253" />
	<rect width="11" height="11" x="18" y="227" style="fill:#ee5253" />
	<rect width="11" height="11" x="29" y="227" style="fill:#ee5253" />
	<rect width="11" height="11" x="51" y="227" style="fill:#ee5253" />
	<rect width="11" height="11" x="62" y="227" style="fill:#ee5253" />
	<rect width="11" height="11" x="73" y="227" style="fill:#ee5253" />
	<rect width="11" height="11" x="117" y="227" style="fill:#ee5253" />
	<rect width="11" height="11" x="172" y="227" style="fill:#ee5253" />
	<rect width="11" height="11" x="227" y="227" style="fill:#ee5253" />
	<rect width="11" height="11" x="238" y="227" style="fill:#ee5253" />
	<rect width="11" height="11" x="249" y="227" style="fill:#ee5253" />
	<rect width="11" height="11" x="260" y="227" style="fill:#ee5253" />
	<rect width="11" height="11" x="271" y="227" style="fill:#ee5253" />
	<rect width="11" height="11" x="282" y="227" style="fill:#ee5253" />
	<rect width="11" height="11" x="95" y="238" style="fill:#ee5253" />
	<rect width="11" height="11" x="194" y="238" style="fill:#ee5253" />
	<rect width="11" height="11" x="205" y="238" style="fill:#ee5253" />
	<rect width="11" height="11" x="216" y="238" style="fill:#ee5253" />
	<rect width="11" height="11" x="227" y="238" style="fill:#ee5253" />
	<rect width="11" height="11" x="271" y="238" style="fill:#ee5253" />
	<rect width="11" height="11" x="293" y="238" style="fill:#ee5253" />
	<rect width="11" height="11" x="304" y="238" style="fill:#ee5253" />
	<rect width="11" height="11" x="315" y="238" style="fill:#ee5253" />
	<rect width="11" height="11" x="7" y="249" style="fill:#ee5253" />
	<rect width="11" height="11" x="18" y="249" style="fill:#ee5253" />
	<rect width="11" height="11" x="29" y="249" style="fill:#ee5253" />
	<rect width="11" height="11" x="40" y="249" style="fill:#ee5253" />
	<rect width="11" height="11" x="51" y="249" style="fill:#ee5253" />
	<rect width="11" height="11" x="62" y="249" style="fill:#ee5253" />
	<rect width="11" height="11" x="73" y="249" style="fill:#ee5253" />
	<rect width="11" height="11" x="95" y="249" style="fill:#ee5253" />
	<rect width="11" height="11" x="106" y="249" style="fill:#ee5253" />
	<rect width="11" height="11" x="117" y="249" style="fill:#ee5253" />
	<rect width="11" height="11" x="150" y="249" style="fill:#ee5253" />
	<rect width="11" height="11" x="183" y="249" style="fill:#ee5253" />
	<rect width="11" height="11" x="216" y="249" style="fill:#ee5253" />
	<rect width="11" height="11" x="227" y="249" style="fill:#ee5253" />
	<rect width="11" height="11" x="249" y="249" style="fill:#ee5253" />
	<rect width="11" height="11" x="271" y="249" style="fill:#ee5253" />
	<rect width="11" height="11" x="315" y="249" style="fill:#ee5253" />
	<rect width="11" height="11" x="7" y="260" style="fill:#ee5253" />
	<rect width="11" height="11" x="73" y="260" style="fill:#ee5253" />
	<rect width="11" height="11" x="95" y="260" style="fill:#ee5253" />
	<rect width="11" height="11" x="117" y="260" style="fill:#ee5253" />
	<rect width="11" height="11" x="139" y="260" style="fill:#ee5253" />
	<rect width="11" height="11" x="150" y="260" style="fill:#ee5253" />
	<rect width="11" height="11" x="161" y="260" style="fill:#ee5253" />
	<rect width="11" height="11" x="172" y="260" style="fill:#ee5253" />
	<rect width="11" height="11" x="183" y="260" style="fill:#ee5253" />
	<rect width="11" height="11" x="194" y="260" style="fill:#ee5253" />
	<rect width="11" height="11" x="205" y="260" style="fill:#ee5253" />
	<rect width="11" height="11" x="216" y="260" style="fill:#ee5253" />
	<rect width="11" height="11" x="227" y="260" style="fill:#ee5253" />
	<rect width="11" height="11" x="271" y="260" style="fill:#ee5253" />
	<rect width="11" height="11" x="282" y="260" style="fill:#ee5253" />
	<rect width="11" height="11" x="7" y="271" style="fill:#ee5253" />
	<rect width="11" height="11" x="29" y="271" style="fill:#ee5253" />
	<rect width="11" height="11" x="40" y="271" style="fill:#ee5253" />
	<rect width="11" height="11" x="51" y="271" style="fill:#ee5253" />
	<rect width="11" height="11" x="73" y="271" style="fill:#ee5253" />
	<rect width="11" height="11" x="95" y="271" style="fill:#ee5253" />
	<rect width="11" height="11" x="106" y="271" style="fill:#ee5253" />
	<rect width="11" height="11" x="128" y="271" style="fill:#ee5253" />
	<rect width="11" height="11" x="150" y="271" style="fill:#ee5253" />
	<rect width="11" height="11" x="183" y="271" style="fill:#ee5253" />
	<rect width="11" height="11" x="205" y="271" style="fill:#ee5253" />
	<rect width="11" height="11" x="216" y="271" style="fill:#ee5253" />
	<rect width="11" height="11" x="227" y="271" style="fill:#ee5253" />
	<rect width="11" height="11" x="238" y="271" style="fill:#ee5253" />
	<rect width="11" height="11" x="249" y="271" style="fill:#ee5253" />
	<rect width="11" height="11" x="260" y="271" style="fill:#ee5253" />
	<rect width="11" height="11" x="271" y="271" style="fill:#ee5253" />
	<rect width="11" height="11" x="304" y="271" style="fill:#ee5253" />
	<rect width="11" height="11" x="315" y="271" style="fill:#ee5253" />
	<rect width="11" height="11" x="7" y="282" style="fill:#ee5253" />
	<rect width="11" height="11" x="29" y="282" style="fill:#ee5253" />
	<rect width="11" height="11" x="40" y="282" style="fill:#ee5253" />
	<rect width="11" height="11" x="51" y="282" style="fill:#ee5253" />
	<rect width="11" height="11" x="73" y="282" style="fill:#ee5253" />
	<rect width="11" height="11" x="117" y="282" style="fill:#ee5253" />
	<rect width="11" height="11" x="139" y="282" style="fill:#ee5253" />
	<rect width="11" height="11" x="161" y="282" style="fill:#ee5253" />
	<rect width="11" height="11" x="183" y="282" style="fill:#ee5253" />
	<rect width="11" height="11" x="194" y="282" style="fill:#ee5253" />
	<rect width="11" height="11" x="260" y="282" style="fill:#ee5253" />
	<rect width="11" height="11" x="304" y="282" style="fill:#ee5253" />
	<rect width="11" height="11" x="7" y="293" style="fill:#ee5253" />
	<rect width="11" height="11" x="29" y="293" style="fill:#ee5253" />
	<rect width="11" height="11" x="40" y="293" style="fill:#ee5253" />
	<rect width="11" height="11" x="51" y="293" style="fill:#ee5253" />
	<rect width="11" height="11" x="73" y="293" style="fill:#ee5253" />
	<rect width="11" height="11" x="106" y="293" style="fill:#ee5253" />
	<rect width="11" height="11" x="161" y="293" style="fill:#ee5253" />
	<rect width="11" height="11" x="172" y="293" style="fill:#ee5253" />
	<rect width="11" height="11" x="194" y="293" style="fill:#ee5253" />
	<rect width="11" height="11" x="216" y="293" style="fill:#ee5253" />
	<rect width="11" height="11" x="227" y="293" style="fill:#ee5253" />
	<rect width="11" height="11" x="238" y="293" style="fill:#ee5253" />
	<rect width="11" height="11" x="293" y="293" style="fill:#ee5253" />
	<rect width="11" height="11" x="304" y="293" style="fill:#ee5253" />
	<rect width="11" height="11" x="315" y="293" style="fill:#ee5253" />
	<rect width="11" height="11" x="7" y="304" style="fill:#ee5253" />
	<rect width="11" height="11" x="73" y="304" style="fill:#ee5253" />
	<rect width="11" height="11" x="106" y="304" style="fill:#ee5253" />
	<rect width="11" height="11" x="150" y="304" style="fill:#ee5253" />
	<rect width="11" height="11" x="205" y="304" style="fill:#ee5253" />
	<rect width="11" height="11" x="216" y="304" style="fill:#ee5253" />
	<rect width="11" height="11" x="238" y="304" style="fill:#ee5253" />
	<rect width="11" height="11" x="249" y="304" style="fill:#ee5253" />
	<rect width="11" height="11" x="260" y="304" style="fill:#ee5253" />
	<rect width="11" height="11" x="282" y="304" style="fill:#ee5253" />
	<rect width="11" height="11" x="304" y="304" style="fill:#ee5253" />
	<rect width="11" height="11" x="315" y="304" style="fill:#ee5253" />
	<rect width="11" height="11" x="7" y="315" style="fill:#ee5253" />
	<rect width="11" height="11" x="18" y="315" style="fill:#ee5253" />
	<rect width="11" height="11" x="29" y="315" style="fill:#ee5253" />
	<rect width="11" height="11" x="40" y="315" style="fill:#ee5253" />
	<rect width="11" height="11" x="51" y="315" style="fill:#ee5253" />
	<rect width="11" height="11" x="62" y="315" style="fill:#ee5253" />
	<rect width="11" height="11" x="73" y="315" style="fill:#ee5253" />
	<rect width="11" height="11" x="117" y="315" style="fill:#ee5253" />
	<rect width="11" height="11" x="128" y="315" style="fill:#ee5253" />
	<rect width="11" height="11" x="139" y="315" style="fill:#ee5253" />
	<rect width="11" height="11" x="150" y="315" style="fill:#ee5253" />
	<rect width="11" height="11" x="172" y="315" style="fill:#ee5253" />
	<rect width="11" height="11" x="194" y="315" style="fill:#ee5253" />
	<rect width="11" height="11" x="216" y="315" style="fill:#ee5253" />
	<rect width="11" height="11" x="227" y="315" style="fill:#ee5253" />
	<rect width="11" height="11" x="238" y="315" style="fill:#ee5253" />
	<rect width="11" height="11" x="271" y="315" style="fill:#ee5253" />
	<rect width="11" height="11" x="282" y="315" style="fill:#ee5253" />
	<rect width="11" height="11" x="304" y="315" style="fill:#ee5253" />
</svg>